<svg width="32" height="32" viewBox="0 0 32 32" fill="none" xmlns="http://www.w3.org/2000/svg">
<path d="M20.7348 17.3282L18.0547 20.0174C16.9679 21.108 15.0557 21.1315 13.9453 20.0174L11.2652 17.3282L1.63916 26.9855C1.99747 27.1512 2.39254 27.2501 2.81254 27.2501H29.1875C29.6075 27.2501 30.0025 27.1513 30.3607 26.9856L20.7348 17.3282Z" fill="#434546"/>
<path d="M29.1874 4.75H2.81241C2.39241 4.75 1.99735 4.84888 1.63916 5.01456L11.9252 15.3348C11.9259 15.3354 11.9267 15.3356 11.9274 15.3363C11.9281 15.3369 11.9282 15.3379 11.9282 15.3379L15.2728 18.6935C15.628 19.0488 16.3719 19.0488 16.7272 18.6935L20.071 15.3384C20.071 15.3384 20.0718 15.3369 20.0725 15.3363C20.0725 15.3363 20.074 15.3354 20.0747 15.3348L30.3605 5.0145C30.0023 4.84875 29.6074 4.75 29.1874 4.75Z" fill="#434546"/>
<path d="M0.299125 6.32581C0.11375 6.70068 0 7.11681 0 7.56256V24.4376C0 24.8833 0.113625 25.2994 0.299062 25.6743L9.94175 16.0004L0.299125 6.32581Z" fill="#434546"/>
<path d="M31.7007 6.32568L22.0581 16.0004L31.7007 25.6744C31.886 25.2996 31.9998 24.8834 31.9998 24.4376V7.56256C31.9998 7.11668 31.886 6.70056 31.7007 6.32568Z" fill="#434546"/>
</svg>
