<svg width="32" height="32" viewBox="0 0 32 32" fill="none" xmlns="http://www.w3.org/2000/svg">
<g clip-path="url(#clip0_355_424)">
<path d="M16 0C12.8187 0.00422007 9.7689 1.26986 7.51938 3.51938C5.26986 5.7689 4.00422 8.8187 4 12C4 20.615 15.18 31.405 15.655 31.86C15.7474 31.9498 15.8712 32 16 32C16.1288 32 16.2526 31.9498 16.345 31.86C16.82 31.405 28 20.615 28 12C27.9958 8.8187 26.7301 5.7689 24.4806 3.51938C22.2311 1.26986 19.1813 0.00422007 16 0V0ZM16 17.5C14.9122 17.5 13.8488 17.1774 12.9444 16.5731C12.0399 15.9687 11.3349 15.1098 10.9187 14.1048C10.5024 13.0998 10.3935 11.9939 10.6057 10.927C10.8179 9.86011 11.3417 8.8801 12.1109 8.11091C12.8801 7.34172 13.8601 6.8179 14.927 6.60568C15.9939 6.39346 17.0998 6.50238 18.1048 6.91866C19.1098 7.33494 19.9687 8.03989 20.5731 8.94436C21.1774 9.84883 21.5 10.9122 21.5 12C21.4991 13.4584 20.9194 14.8569 19.8881 15.8881C18.8569 16.9194 17.4584 17.4991 16 17.5Z" fill="#434546"/>
</g>
<defs>
<clipPath id="clip0_355_424">
<rect width="32" height="32" fill="white"/>
</clipPath>
</defs>
</svg>
