<svg width="9" height="15" viewBox="0 0 9 15" fill="none" xmlns="http://www.w3.org/2000/svg">
<path d="M7.00004 -0.000185013C7.19867 -0.00133991 7.39314 0.0566816 7.55866 0.166483C7.72418 0.276284 7.85325 0.432889 7.92941 0.616333C8.00558 0.799777 8.02539 1.00175 7.98632 1.1965C7.94725 1.39124 7.85107 1.56994 7.71004 1.70981L2.41004 6.99981L7.71004 12.2898C7.89835 12.4781 8.00414 12.7335 8.00414 12.9998C8.00414 13.1317 7.97816 13.2622 7.9277 13.3841C7.87724 13.5059 7.80328 13.6166 7.71004 13.7098C7.61681 13.8031 7.50612 13.877 7.38429 13.9275C7.26247 13.9779 7.1319 14.0039 7.00004 14.0039C6.73374 14.0039 6.47835 13.8981 6.29004 13.7098L0.290042 7.70981C0.103791 7.52245 -0.000750542 7.269 -0.000750542 7.00481C-0.000750542 6.74063 0.103791 6.48718 0.290042 6.29981L6.29004 0.299814C6.38266 0.205326 6.4931 0.130157 6.61498 0.078661C6.73685 0.0271645 6.86774 0.000364304 7.00004 -0.000185013Z" fill="#434546"/>
</svg>
